PathFileType	4	(X/Y/Z)	C:/Users/beibeiliu/ov580/test_trc\sequence.32_training_dense_left.trc
DataRate	CameraRate	NumFrames	NumMarkers	Units	OrigDataRate	OrigDataStartFrame	OrigNumFrames
120	120	8	19	mm	120	151	200
Frame#	Time	ThumbCMC			ThumbMCP			ThumbIP			ThumbTip			IndexMCP			IndexPIP			IndexTip			MiddleMCP			MiddlePIP			MiddleTip			RingMCP			RingPIP			RingTip			PinkyMCP			PinkyPIP			PinkyTip			BackHand1			BackHand2			BackHand3	
		X0	Y0	Z0	X1	Y1	Z1	X2	Y2	Z2	X3	Y3	Z3	X4	Y4	Z4	X5	Y5	Z5	X6	Y6	Z6	X7	Y7	Z7	X8	Y8	Z8	X9	Y9	Z9	X10	Y10	Z10	X11	Y11	Z11	X12	Y12	Z12	X13	Y13	Z13	X14	Y14	Z14	X15	Y15	Z15	X16	Y16	Z16	X17	Y17	Z17	X18	Y18	Z18	
150	1.25	-131.785	52.2138	20.0706	-109.748	45.2211	0.88078	-96.5318	44.2817	-13.2343	-83.4734	42.1732	-30.1191	-129.864	65.9083	-41.9421	-116.015	54.5832	-62.7179	-110.949	35.4555	-77.2097	-155.655	67.4988	-50.8933	-152.594	68.6924	-75.642	-149.197	71.9493	-95.3823	-165.197	53.7544	-51.421	-158.748	40.4606	-72.3213	-146.238	23.6573	-82.4604	-190.445	40.7976	-39.238	-189.758	38.3578	-58.1986	-196.115	39.4302	-76.9078	-178.082	57.2841	-0.225267	-181.638	53.5698	23.2259	-156.177	69.3283	15.6297	
151	1.25833	-127.452	53.6028	21.3436	-113.412	45.5388	1.27181	-95.6789	45.4293	-17.2671	-87.9725	42.0424	-33.5019	-129.196	66.4957	-40.8382	-118.246	53.6245	-61.273	-110.412	31.5654	-74.7628	-155.286	66.5083	-48.2581	-152.078	68.9993	-72.8525	-149.155	72.3473	-97.2017	-164.781	49.8652	-52.8057	-153.048	33.8066	-68.8275	-141.816	15.855	-72.6021	-186.272	44.8451	-41.019	-189.41	41.8122	-57.3917	-193.452	43.1833	-72.7073	-180.545	60.3034	-4.55356	-183.721	55.5548	22.2063	-158.271	68.7382	11.0842	
152	1.26667	-129.655	53.177	20.9835	-113.112	44.1325	5.15755	-97.9286	44.3307	-13.9322	-87.7616	42.1649	-30.6645	-126.939	65.6513	-42.635	-116.015	52.2326	-61.3141	-110.733	33.1678	-73.4675	-155.663	67.7085	-50.5936	-150.779	69.0842	-72.5484	-151.415	69.5949	-95.8875	-164.977	50.0776	-49.4696	-154.798	31.8485	-65.801	-139.753	7.36529	-63.3144	-190.698	44.2117	-39.8915	-187.412	44.7274	-58.2835	-192.021	45.8157	-74.9345	-179.785	59.887	-1.45839	-181.2	59.2824	23.9319	-158.419	69.136	14.2628	
153	1.275	-133.128	52.2027	20.7702	-111.774	45.5596	3.69512	-102.668	44.9018	-16.9054	-90.343	42.0812	-30.4904	-133.509	65.2671	-41.632	-118.239	50.6624	-63.7287	-113.834	29.1236	-75.3041	-154.844	69.0442	-53.3949	-154.541	67.1282	-73.5711	-150.062	68.7384	-97.2147	-170.612	47.4992	-49.0085	-154.743	27.5968	-66.244	-140.728	10.2965	-60.9642	-188.427	44.9818	-39.7574	-191.998	42.3445	-59.7642	-195.417	45.0858	-74.0071	-182.311	59.5565	-5.69064	-185.107	56.9147	24.9348	-160.24	69.2839	15.5363	
154	1.28333	-134.025	51.7846	20.2195	-111.131	45.72	1.38153	-98.9151	45.4119	-19.6325	-93.3239	42.7336	-35.1346	-130.174	64.8768	-45.5879	-124.104	50.24	-63.7649	-116.009	31.8302	-74.6294	-159.673	66.0559	-51.8283	-153.976	67.0776	-73.6588	-151.783	67.5166	-99.898	-167.33	48.6786	-47.9055	-156.078	25.0892	-65.3939	-141.651	6.83748	-59.907	-191.926	42.4486	-38.1841	-190.494	44.052	-59.0268	-195.958	43.2968	-72.1118	-180.972	59.2693	-2.45126	-185.408	54.4816	25.5147	-158.339	68.0368	12.5346	
155	1.29167	-133.613	50.8771	23.6088	-116.565	44.5951	-0.761195	-101.1	44.0973	-17.5518	-88.806	43.4869	-35.9969	-130.006	65.6196	-41.0965	-119.515	51.6465	-62.9846	-112.891	31.2347	-75.2169	-158.299	67.1	-50.7329	-152.51	66.3829	-76.776	-153.608	66.1216	-97.6278	-166.753	48.2361	-49.1335	-158.093	28.1509	-65.9024	-140.732	7.76033	-61.9108	-190.137	43.7294	-41.6691	-192.542	41.2595	-57.4764	-197.138	44.7543	-71.9259	-180.593	60.1467	-1.92906	-184.364	56.7394	26.8159	-162.437	67.8685	15.7483	
156	1.3	-132.406	52.2813	20.7584	-116.606	45.6225	1.12577	-99.9369	45.4518	-18.0629	-87.5363	42.2116	-31.8672	-134.137	63.5345	-45.449	-124.241	51.4977	-63.2107	-114.732	32.1115	-74.8449	-160.103	66.2074	-53.7952	-155.602	65.7307	-74.2095	-155.124	65.7071	-99.2849	-170.362	45.7497	-52.2989	-153.638	29.902	-66.3716	-140.79	7.89969	-65.4844	-188.292	43.5174	-37.1957	-189.997	42.2674	-55.0693	-199.397	43.5389	-70.9281	-181.221	58.3801	-3.7021	-182.763	56.1906	23.8199	-161.731	67.7292	11.2372	
157	1.30833	-130.771	51.8969	24.6751	-115.766	43.0002	4.91034	-100.003	43.4807	-16.9393	-91.6744	41.014	-34.4217	-130.123	64.9403	-42.435	-122.595	51.4913	-60.9017	-111.739	30.6549	-74.9379	-160.172	64.9229	-49.5792	-153.012	65.8433	-74.2766	-153.713	64.4818	-101.202	-171.841	45.8977	-50.3385	-157.208	32.7934	-67.7683	-143.688	10.8414	-73.3719	-191.383	42.262	-39.2326	-191.273	41.5506	-54.8493	-194.712	43.7195	-72.9176	-183.566	57.4144	-4.72433	-185.715	54.9552	23.3491	-157.812	67.999	15.2747	
